<svg width="84" height="26" viewBox="0 0 84 26" fill="none" xmlns="http://www.w3.org/2000/svg">
<path fill-rule="evenodd" clip-rule="evenodd" d="M51.8 19.6601C46.967 23.2331 39.938 25.1372 33.875 25.1372C25.7877 25.1774 17.976 22.2008 11.966 16.7891C11.527 16.3791 11.907 15.8222 12.466 16.1452C18.2859 19.4944 24.802 21.4514 31.5043 21.8629C38.2065 22.2744 44.913 21.1293 51.099 18.5171C51.917 18.1961 52.591 19.0781 51.8 19.6601Z" fill="#172327" fill-opacity="0.2"/>
<path fill-rule="evenodd" clip-rule="evenodd" d="M53.821 17.3461C53.206 16.5551 49.721 16.9651 48.168 17.1701C47.699 17.2291 47.611 16.819 48.051 16.526C50.834 14.564 55.373 15.1491 55.901 15.7941C56.429 16.4391 55.755 21.0081 53.148 23.1751C52.738 23.4971 52.357 23.321 52.533 22.882C53.118 21.418 54.436 18.1661 53.821 17.3461Z" fill="#172327" fill-opacity="0.2"/>
<path fill-rule="evenodd" clip-rule="evenodd" d="M48.256 2.76006V0.860066C48.2527 0.797604 48.2625 0.73515 48.2849 0.676747C48.3073 0.618345 48.3418 0.565306 48.386 0.521077C48.4302 0.476847 48.4833 0.4424 48.5417 0.420003C48.6001 0.397606 48.6625 0.387759 48.725 0.391072H57.216C57.3442 0.387821 57.4686 0.435193 57.5622 0.522969C57.6558 0.610746 57.711 0.731859 57.716 0.860066V2.47106C57.716 2.73506 57.482 3.08607 57.072 3.67107L52.679 9.93908C54.3531 9.84889 56.0214 10.2014 57.516 10.961C57.6457 11.0353 57.7542 11.1416 57.831 11.2698C57.9079 11.3979 57.9506 11.5437 57.955 11.6931V13.7141C57.955 14.0071 57.662 14.3291 57.34 14.1531C55.9541 13.4357 54.4154 13.0638 52.8549 13.0688C51.2944 13.0739 49.7582 13.4558 48.377 14.1821C48.3071 14.2071 48.2322 14.2148 48.1586 14.2046C48.0851 14.1944 48.0151 14.1665 47.9547 14.1234C47.8943 14.0802 47.8452 14.0231 47.8116 13.9569C47.7781 13.8907 47.761 13.8173 47.762 13.7431V11.8071C47.7332 11.3544 47.8457 10.904 48.084 10.5181L53.184 3.22506H48.761C48.6327 3.22831 48.5083 3.18094 48.4147 3.09316C48.3212 3.00538 48.2659 2.88427 48.261 2.75606L48.256 2.76006ZM17.297 14.5601H14.716C14.6005 14.5485 14.492 14.4992 14.4072 14.4199C14.3225 14.3406 14.2662 14.2355 14.247 14.1211V0.886067C14.2519 0.75786 14.3072 0.636747 14.4008 0.54897C14.4943 0.461194 14.6187 0.413822 14.747 0.417073H17.147C17.2658 0.418689 17.3797 0.464569 17.4665 0.545766C17.5532 0.626963 17.6065 0.737627 17.616 0.856068V2.58407H17.675C17.903 1.86975 18.3522 1.24642 18.9577 0.804128C19.5632 0.361833 20.2936 0.123463 21.0435 0.123463C21.7933 0.123463 22.5237 0.361833 23.1292 0.804128C23.7347 1.24642 24.1839 1.86975 24.412 2.58407C24.6689 1.84763 25.1538 1.21218 25.7963 0.769856C26.4387 0.327537 27.2053 0.10135 27.985 0.124074C28.5637 0.112397 29.1369 0.239257 29.6567 0.494099C30.1765 0.748941 30.6278 1.12437 30.973 1.58907C31.793 2.70207 31.617 4.31307 31.617 5.74807V14.1251C31.612 14.2533 31.5568 14.3744 31.4632 14.4621C31.3696 14.5499 31.2452 14.5973 31.117 14.5941H28.569C28.447 14.5867 28.3319 14.5349 28.2455 14.4485C28.1591 14.3621 28.1073 14.247 28.1 14.1251V7.09606C28.1392 6.26571 28.1195 5.43363 28.041 4.60607C27.9873 4.25379 27.7973 3.93667 27.5121 3.72307C27.2269 3.50947 26.8691 3.41647 26.516 3.46407C26.1798 3.47377 25.8537 3.58153 25.578 3.77413C25.3022 3.96672 25.0888 4.23574 24.964 4.54805C24.7517 5.37967 24.6728 6.2397 24.73 7.09606V14.1251C24.725 14.2533 24.6698 14.3744 24.5762 14.4621C24.4826 14.5499 24.3582 14.5973 24.23 14.5941H21.653C21.531 14.5867 21.4159 14.5349 21.3295 14.4485C21.2431 14.3621 21.1913 14.247 21.184 14.1251V7.09606C21.184 5.63106 21.418 3.43508 19.602 3.43508C17.757 3.43508 17.815 5.54406 17.815 7.09606V14.1251C17.7966 14.2503 17.7327 14.3643 17.6354 14.4453C17.5382 14.5263 17.4145 14.5686 17.288 14.5641L17.297 14.5601ZM65.039 0.120076C68.876 0.120076 70.956 3.40007 70.956 7.58907C70.956 11.6311 68.671 14.8531 65.039 14.8531C61.29 14.8531 59.239 11.5731 59.239 7.47207C59.21 3.34207 61.289 0.120076 65.039 0.120076ZM65.039 2.84407C63.139 2.84407 63.018 5.45106 63.018 7.06206C63.018 8.67306 62.989 12.129 65.01 12.129C67.002 12.129 67.119 9.34606 67.119 7.64806C67.155 6.46442 67.0267 5.28152 66.738 4.13308C66.6579 3.74952 66.4416 3.40795 66.129 3.17168C65.8164 2.93541 65.4288 2.82046 65.038 2.84807L65.039 2.84407ZM75.905 14.5601H73.328C73.206 14.5527 73.0909 14.5009 73.0045 14.4145C72.9181 14.3281 72.8663 14.213 72.859 14.0911V0.827077C72.8752 0.705825 72.9347 0.594524 73.0267 0.513814C73.1186 0.433104 73.2366 0.388424 73.359 0.388051H75.759C75.868 0.391695 75.9729 0.430926 76.0575 0.499715C76.1422 0.568503 76.2021 0.663086 76.228 0.769063V2.79006H76.287C77.019 0.974059 78.015 0.12505 79.802 0.12505C80.3966 0.0980362 80.9879 0.227083 81.5171 0.499348C82.0464 0.771614 82.4952 1.17762 82.819 1.67705C83.493 2.73205 83.493 4.51806 83.493 5.80706V14.155C83.4753 14.2732 83.4143 14.3806 83.3219 14.4563C83.2295 14.5321 83.1123 14.5708 82.993 14.5651H80.416C80.3047 14.5545 80.1995 14.5093 80.1153 14.4357C80.0312 14.3621 79.9723 14.2639 79.947 14.155V6.95006C79.947 5.48606 80.123 3.37706 78.336 3.37706C78.0124 3.39216 77.6999 3.49939 77.4352 3.68612C77.1705 3.87284 76.9647 4.13129 76.842 4.43105C76.5287 5.23226 76.3889 6.09085 76.432 6.95006V14.0971C76.4158 14.2258 76.3534 14.3443 76.2565 14.4305C76.1596 14.5167 76.0347 14.5649 75.905 14.5661V14.5601ZM41.49 8.23305C41.5857 9.17625 41.4236 10.1278 41.021 10.9861C40.8576 11.3253 40.605 11.6136 40.2901 11.8201C39.9753 12.0266 39.6102 12.1434 39.234 12.1581C38.234 12.1581 37.652 11.3961 37.652 10.2831C37.652 8.08307 39.614 7.67608 41.489 7.67608L41.49 8.23305ZM44.097 14.5331C44.0135 14.606 43.9093 14.6509 43.799 14.6615C43.6886 14.672 43.5778 14.6478 43.482 14.5921C42.8854 14.1093 42.3795 13.5242 41.988 12.8641C41.4773 13.4884 40.8266 13.9836 40.0887 14.3094C39.3508 14.6352 38.5464 14.7824 37.741 14.7391C37.2125 14.7701 36.6835 14.6863 36.1904 14.4935C35.6973 14.3007 35.2518 14.0035 34.8845 13.6222C34.5172 13.2409 34.2368 12.7846 34.0625 12.2847C33.8882 11.7848 33.8243 11.2531 33.875 10.7261C33.8446 9.82527 34.0926 8.93701 34.5853 8.18224C35.0779 7.42747 35.7912 6.84288 36.628 6.50808C38.2001 5.98665 39.8357 5.68117 41.49 5.60006V5.27807C41.5775 4.63483 41.4651 3.98023 41.168 3.40307C40.9996 3.18472 40.7816 3.00966 40.532 2.89245C40.2824 2.77523 40.0085 2.71922 39.733 2.72905C39.2562 2.68745 38.7809 2.82263 38.3973 3.10881C38.0138 3.395 37.7488 3.81221 37.653 4.28106C37.594 4.51506 37.453 4.75005 37.214 4.75005L34.724 4.48607C34.6638 4.47762 34.606 4.45711 34.554 4.42577C34.502 4.39443 34.4568 4.35291 34.4213 4.3037C34.3857 4.25449 34.3604 4.19858 34.347 4.13936C34.3335 4.08014 34.3321 4.01882 34.343 3.95907C34.929 0.913065 37.653 0.00505527 40.113 0.00505527C41.5267 -0.0553975 42.9137 0.403041 44.013 1.29406C45.272 2.46606 45.155 4.04705 45.155 5.74605V9.75905C45.1714 10.6507 45.5156 11.5051 46.122 12.1591C46.298 12.3931 46.327 12.6861 46.122 12.8331C45.561 13.2751 44.622 14.0951 44.097 14.5331ZM7.66098 8.23305C7.75672 9.17625 7.59461 10.1278 7.19197 10.9861C7.02862 11.3253 6.77597 11.6136 6.46114 11.8201C6.14631 12.0266 5.7812 12.1434 5.40499 12.1581C4.40499 12.1581 3.82298 11.3961 3.82298 10.2831C3.82298 8.08307 5.78498 7.67608 7.65998 7.67608L7.66098 8.23305ZM10.239 14.5331C10.1555 14.606 10.0513 14.6509 9.94097 14.6615C9.83065 14.672 9.71979 14.6478 9.62398 14.5921C9.0274 14.1093 8.52151 13.5241 8.12998 12.8641C7.61928 13.4884 6.96858 13.9836 6.23067 14.3094C5.49276 14.6352 4.68844 14.7824 3.88298 14.7391C3.35446 14.7701 2.82549 14.6863 2.33241 14.4935C1.83934 14.3007 1.39384 14.0035 1.02652 13.6222C0.659207 13.2409 0.378781 12.7846 0.204515 12.2847C0.0302498 11.7848 -0.0337207 11.2531 0.0169848 10.7261C-0.0133793 9.82527 0.234628 8.93701 0.727251 8.18224C1.21987 7.42747 1.93316 6.84288 2.76998 6.50808C4.34205 5.98665 5.97767 5.68117 7.63198 5.60006V5.27807C7.71953 4.63483 7.60713 3.98023 7.30998 3.40307C7.14161 3.18472 6.92358 3.00966 6.67401 2.89245C6.42445 2.77523 6.15052 2.71922 5.87497 2.72905C5.39823 2.68745 4.92285 2.82263 4.53931 3.10881C4.15576 3.395 3.89085 3.81221 3.79498 4.28106C3.73598 4.51506 3.58997 4.75005 3.35597 4.75005L0.865984 4.48607C0.805847 4.47762 0.748033 4.45711 0.696016 4.42577C0.643999 4.39443 0.598844 4.35291 0.563265 4.3037C0.527685 4.25449 0.502407 4.19858 0.488954 4.13936C0.475501 4.08014 0.474147 4.01882 0.484972 3.95907C1.07097 0.913065 3.79498 0.00505527 6.25498 0.00505527C7.66869 -0.0553975 9.05575 0.403041 10.155 1.29406C11.414 2.46606 11.297 4.04705 11.297 5.74605V9.75905C11.3135 10.6507 11.6577 11.5051 12.264 12.1591C12.44 12.3931 12.469 12.6861 12.264 12.8331C11.707 13.2721 10.77 14.0921 10.243 14.5331H10.239Z" fill="#172327" fill-opacity="0.2"/>
</svg>
