<svg width="75" height="42" viewBox="0 0 75 42" fill="none" xmlns="http://www.w3.org/2000/svg">
<path d="M24.729 37.4409H21.72V25.5168H24.729V37.4409Z" fill="#172327" fill-opacity="0.2"/>
<path d="M48.991 28.9341C48.2141 28.5126 47.3438 28.293 46.46 28.2959C46.0307 28.2723 45.601 28.3377 45.1981 28.4878C44.7951 28.6378 44.4273 28.8693 44.118 29.168C43.8086 29.4666 43.5643 29.8261 43.4003 30.2236C43.2363 30.6211 43.1562 31.0481 43.165 31.478C43.1559 31.908 43.2358 32.3352 43.3997 32.7329C43.5635 33.1306 43.8077 33.4902 44.117 33.7891C44.4264 34.0879 44.7943 34.3197 45.1974 34.4697C45.6006 34.6198 46.0305 34.685 46.46 34.6611C47.3431 34.6631 48.2128 34.4453 48.991 34.0278V37.228C48.1021 37.5005 47.1787 37.6431 46.249 37.6518C45.4195 37.6902 44.591 37.5581 43.8146 37.2637C43.0382 36.9692 42.3304 36.5187 41.735 35.9399C41.1394 35.3613 40.6688 34.667 40.3522 33.8994C40.0355 33.1318 39.8796 32.3073 39.894 31.477C39.8804 30.6472 40.037 29.8232 40.3539 29.0561C40.6709 28.2891 41.1416 27.5953 41.737 27.0171C42.3325 26.439 43.04 25.9891 43.816 25.6948C44.592 25.4006 45.42 25.2682 46.249 25.3061C47.1795 25.3087 48.1041 25.453 48.991 25.7349V28.9341ZM17.584 28.9341C16.8086 28.5118 15.9389 28.2924 15.056 28.2969C14.6262 28.2725 14.1961 28.3376 13.7926 28.4873C13.3891 28.637 13.0208 28.8683 12.711 29.167C12.401 29.4657 12.1561 29.8253 11.9918 30.2231C11.8274 30.621 11.7471 31.0486 11.756 31.479C11.7471 31.9095 11.8272 32.3373 11.9914 32.7353C12.1556 33.1334 12.4002 33.493 12.71 33.792C13.02 34.0908 13.3884 34.3224 13.7921 34.4722C14.1958 34.6219 14.6261 34.6866 15.056 34.6621C15.9382 34.6651 16.8072 34.4472 17.584 34.0288V37.229C16.6944 37.5029 15.7697 37.6455 14.839 37.6528C14.0098 37.6912 13.1815 37.5591 12.4055 37.2646C11.6294 36.9702 10.922 36.5197 10.327 35.9409C9.73206 35.362 9.26206 34.6675 8.9461 33.8999C8.63014 33.1323 8.47491 32.308 8.48998 31.478C8.47623 30.6486 8.63247 29.8253 8.94909 29.0586C9.26571 28.2919 9.73602 27.598 10.331 27.02C10.9259 26.442 11.6329 25.9922 12.4084 25.6977C13.1838 25.4033 14.0113 25.2706 14.84 25.3081C15.7711 25.3092 16.6965 25.453 17.584 25.7349V28.9341ZM58.457 28.3418C58.0451 28.3379 57.6366 28.4166 57.2557 28.5732C56.8747 28.7299 56.529 28.9614 56.239 29.2539C55.949 29.5463 55.7206 29.8937 55.5672 30.2759C55.4138 30.658 55.3386 31.0673 55.346 31.479C55.3383 31.891 55.4132 32.3001 55.5664 32.6826C55.7196 33.0651 55.948 33.4133 56.238 33.706C56.528 33.9988 56.8739 34.2304 57.255 34.3872C57.6361 34.544 58.0448 34.623 58.457 34.6191C58.8691 34.6229 59.2778 34.544 59.6589 34.3872C60.0401 34.2304 60.3859 33.9988 60.676 33.706C60.9662 33.4134 61.1948 33.0656 61.3484 32.6831C61.5019 32.3006 61.5773 31.8911 61.57 31.479C61.5763 31.0668 61.4999 30.6575 61.3453 30.2754C61.1908 29.8932 60.9611 29.5458 60.67 29.2539C60.3799 28.9615 60.0342 28.7304 59.6533 28.5737C59.2723 28.4171 58.8639 28.338 58.452 28.3418H58.457ZM64.752 31.478C64.7596 32.3016 64.6009 33.1185 64.2854 33.8794C63.9699 34.6402 63.5042 35.3296 62.916 35.9062C62.3278 36.4829 61.6293 36.935 60.8622 37.2353C60.0952 37.5357 59.2754 37.6778 58.452 37.6538C57.6287 37.6779 56.8089 37.536 56.0419 37.2358C55.2748 36.9356 54.5763 36.4837 53.988 35.9072C53.3996 35.3305 52.9338 34.6409 52.6183 33.8799C52.3028 33.1188 52.1442 32.3018 52.152 31.478C52.1449 30.6546 52.3041 29.8381 52.6199 29.0776C52.9357 28.3171 53.4017 27.6284 53.99 27.0522C54.5782 26.476 55.2767 26.0241 56.0435 25.7241C56.8104 25.4241 57.6299 25.282 58.453 25.3061C59.276 25.2824 60.0953 25.4249 60.8619 25.7251C61.6286 26.0253 62.3269 26.477 62.915 27.0532C63.503 27.6294 63.9689 28.3178 64.2847 29.0781C64.6005 29.8384 64.7597 30.6548 64.753 31.478H64.752ZM36.135 28.228C35.3676 28.0166 34.5784 27.895 33.783 27.8652C32.577 27.8652 31.922 28.2648 31.922 28.8418C31.922 29.5688 32.806 29.822 33.301 29.978L34.131 30.2422C34.9193 30.4088 35.6285 30.8361 36.1443 31.4551C36.6601 32.0741 36.9523 32.8484 36.974 33.6538C36.974 36.6538 34.34 37.6538 32.037 37.6538C30.947 37.6437 29.8602 37.5349 28.79 37.3281V34.582C29.7141 34.8508 30.6689 34.9998 31.631 35.0259C33.131 35.0259 33.816 34.5881 33.816 33.9131C33.816 33.3131 33.216 32.9601 32.474 32.7261C32.293 32.6651 32.018 32.5801 31.832 32.5181C30.156 31.9881 28.759 31.0028 28.759 29.0298C28.759 26.7998 30.429 25.3022 33.202 25.3022C34.191 25.3156 35.1751 25.4427 36.135 25.6811V28.2261V28.228Z" fill="#172327" fill-opacity="0.2"/>
<path d="M5.29797 12.7029C5.29691 12.3075 5.13895 11.9287 4.85883 11.6497C4.5787 11.3707 4.19931 11.2146 3.80396 11.2151C3.40885 11.2148 3.02979 11.3709 2.74976 11.6497C2.46972 11.9284 2.31159 12.3068 2.31 12.7019V15.8328C2.3209 16.2222 2.48288 16.5924 2.76172 16.8645C3.04056 17.1366 3.41434 17.2894 3.80396 17.2908C4.19403 17.2909 4.56867 17.1384 4.84784 16.866C5.12701 16.5935 5.28857 16.2227 5.29797 15.8328V12.7029ZM13.503 8.59497C13.503 8.19874 13.3455 7.81851 13.0654 7.53833C12.7852 7.25815 12.4052 7.10083 12.009 7.10083C11.6127 7.10083 11.2328 7.25815 10.9526 7.53833C10.6724 7.81851 10.515 8.19874 10.515 8.59497V15.8328C10.515 16.229 10.6724 16.6092 10.9526 16.8894C11.2328 17.1696 11.6127 17.3269 12.009 17.3269C12.4052 17.3269 12.7852 17.1696 13.0654 16.8894C13.3455 16.6092 13.503 16.229 13.503 15.8328V8.59399V8.59497ZM21.709 2.9729C21.7079 2.57763 21.5501 2.19881 21.2703 1.91968C20.9904 1.64055 20.6112 1.48413 20.2159 1.48413C19.8203 1.48387 19.4408 1.64031 19.1606 1.91968C18.8805 2.19905 18.7228 2.57826 18.722 2.97388V18.8069C18.7316 19.1967 18.8933 19.5674 19.1724 19.8396C19.4516 20.1118 19.826 20.264 20.2159 20.2639C20.6058 20.264 20.9804 20.1118 21.2595 19.8396C21.5387 19.5674 21.7003 19.1967 21.71 18.8069L21.709 2.9729ZM29.914 8.59497C29.914 8.19874 29.7566 7.81851 29.4764 7.53833C29.1962 7.25815 28.8162 7.10083 28.42 7.10083C28.0238 7.10083 27.6437 7.25815 27.3635 7.53833C27.0833 7.81851 26.926 8.19874 26.926 8.59497V15.8328C26.926 16.229 27.0833 16.6092 27.3635 16.8894C27.6437 17.1696 28.0238 17.3269 28.42 17.3269C28.8162 17.3269 29.1962 17.1696 29.4764 16.8894C29.7566 16.6092 29.914 16.229 29.914 15.8328V8.59399V8.59497ZM38.114 12.7029C38.1142 12.3087 37.958 11.9306 37.6795 11.6516C37.401 11.3726 37.0232 11.2156 36.629 11.2151C36.2337 11.2143 35.8543 11.3703 35.5742 11.6492C35.294 11.928 35.136 12.3066 35.1349 12.7019V15.8328C35.1349 16.2277 35.2919 16.6067 35.5711 16.886C35.8503 17.1652 36.2291 17.322 36.624 17.322C37.018 17.3207 37.3955 17.1631 37.6736 16.884C37.9518 16.6049 38.108 16.2268 38.108 15.8328L38.114 12.7029ZM46.323 8.59497C46.3133 8.20642 46.1522 7.83712 45.874 7.56567C45.5958 7.29423 45.2227 7.14199 44.834 7.14185C44.4453 7.14199 44.0721 7.29423 43.7939 7.56567C43.5157 7.83712 43.3546 8.20642 43.345 8.59497V15.8328C43.345 16.2277 43.5018 16.6067 43.7811 16.886C44.0603 17.1652 44.4391 17.322 44.834 17.322C45.2289 17.322 45.6076 17.1652 45.8868 16.886C46.1661 16.6067 46.323 16.2277 46.323 15.8328V8.59399V8.59497ZM54.534 2.9729C54.5337 2.57817 54.3767 2.19968 54.0975 1.92065C53.8183 1.64163 53.4397 1.48511 53.045 1.48511C52.6502 1.48511 52.2716 1.64163 51.9924 1.92065C51.7132 2.19968 51.5562 2.57817 51.556 2.9729V18.8069C51.5441 19.0756 51.6053 19.3425 51.733 19.5793C51.8606 19.8162 52.0499 20.0142 52.2809 20.1521C52.512 20.2897 52.776 20.3621 53.045 20.3621C53.3139 20.3621 53.5779 20.2897 53.809 20.1521C54.0401 20.0142 54.2296 19.8159 54.3572 19.5789C54.4849 19.3419 54.546 19.0748 54.534 18.8059V2.9729ZM62.743 8.59497C62.7423 8.39777 62.7027 8.20264 62.6265 8.02075C62.5503 7.83887 62.439 7.67374 62.299 7.53491C62.1587 7.39655 61.9925 7.28726 61.8099 7.21314C61.6274 7.13901 61.432 7.10138 61.235 7.10278C60.84 7.10305 60.4612 7.2604 60.182 7.5398C59.9028 7.8192 59.746 8.19802 59.746 8.59302V15.8318C59.7455 16.0278 59.7836 16.2219 59.8583 16.4031C59.9329 16.5843 60.0426 16.7492 60.181 16.8879C60.4604 17.1679 60.8395 17.3254 61.235 17.3259C61.4323 17.3277 61.628 17.2904 61.8108 17.2161C61.9936 17.1417 62.1599 17.0318 62.3 16.8928C62.4403 16.754 62.5516 16.5891 62.6277 16.407C62.7037 16.2249 62.7429 16.0291 62.743 15.8318V8.59302V8.59497ZM70.937 12.7029C70.937 12.3074 70.7799 11.9283 70.5002 11.6487C70.2206 11.3691 69.8414 11.2117 69.446 11.2117C69.0505 11.2117 68.6713 11.3691 68.3917 11.6487C68.112 11.9283 67.955 12.3074 67.955 12.7029V15.8328C67.9546 16.0289 67.9928 16.2232 68.0676 16.4045C68.1423 16.5858 68.2521 16.7506 68.3906 16.8894C68.529 17.0283 68.6935 17.1384 68.8746 17.2136C69.0557 17.2888 69.2499 17.3278 69.446 17.3279C69.6419 17.3276 69.8359 17.2888 70.0168 17.2136C70.1977 17.1384 70.362 17.0281 70.5004 16.8894C70.6387 16.7507 70.7484 16.5861 70.8232 16.405C70.8979 16.2239 70.9362 16.0297 70.936 15.8337V12.7039L70.937 12.7029Z" fill="#172327" fill-opacity="0.2"/>
<path d="M69.2129 35.8708V36.0579H68.681V37.4412H68.462V36.0588H67.928V35.8708H69.2129ZM69.324 35.8708H69.6659L70.1359 37.1589H70.144L70.5989 35.8718H70.935V37.4412H70.711V36.1541H70.7029L70.227 37.4412H70.02L69.555 36.1541H69.545V37.4412H69.326L69.324 35.8708Z" fill="#172327" fill-opacity="0.2"/>
</svg>
