<svg width="122" height="24" viewBox="0 0 122 24" fill="none" xmlns="http://www.w3.org/2000/svg">
<g clip-path="url(#clip0_360_21649)">
<path fill-rule="evenodd" clip-rule="evenodd" d="M4.07399 2.23493C4.98225 1.44576 6.03774 0.844175 7.17961 0.464868C8.32148 0.0855613 9.52714 -0.0639673 10.7271 0.0249028C11.927 0.113773 13.0975 0.439284 14.171 0.982669C15.2445 1.52605 16.1999 2.27656 16.982 3.19093C18.6638 4.89166 19.6461 7.16163 19.7346 9.55185C19.8231 11.9421 19.0114 14.2785 17.46 16.0989L10.289 23.2699C8.85499 22.3139 6.46499 20.4019 7.42099 18.4889C9.33299 16.0989 11.721 14.1889 13.636 11.7959C15.07 9.88393 14.114 6.05893 11.246 5.58093C10.6024 5.35597 9.91185 5.30002 9.24045 5.41843C8.56905 5.53684 7.93929 5.82565 7.4115 6.2572C6.8837 6.68875 6.47555 7.24858 6.22612 7.88308C5.9767 8.51758 5.89436 9.20549 5.98699 9.88093C5.98699 12.2709 7.89899 13.7049 9.33299 15.1399C7.89899 16.5739 5.98699 17.5299 5.98699 19.4399C4.55299 17.5279 2.16299 16.0939 1.20599 13.7029C0.33196 11.7461 0.139531 9.55272 0.659485 7.47363C1.17944 5.39454 2.38173 3.54993 4.07399 2.23493Z" fill="#172327" fill-opacity="0.2"/>
<path fill-rule="evenodd" clip-rule="evenodd" d="M34.67 2.23487C35.148 0.800873 36.582 1.27887 37.538 1.27887V18.9619H34.67V17.5319C33.519 18.4599 32.085 18.966 30.6065 18.966C29.128 18.966 27.694 18.4599 26.543 17.5319C25.219 16.323 24.426 14.6403 24.3365 12.8497C24.247 11.0592 24.8682 9.30572 26.065 7.97087C27.1412 6.79956 28.605 6.05745 30.1859 5.88172C31.7668 5.70598 33.3579 6.1085 34.665 7.01487L34.67 2.23487ZM30.37 8.44987C27.98 8.92787 26.07 12.2739 27.98 14.6649C28.3371 15.1858 28.825 15.6036 29.3946 15.8764C29.9643 16.1492 30.5957 16.2673 31.2254 16.2188C31.8551 16.1704 32.461 15.9571 32.9823 15.6005C33.5035 15.2438 33.9217 14.7563 34.195 14.1869C35.626 11.7959 33.235 8.44887 30.367 8.44887L30.37 8.44987Z" fill="#172327" fill-opacity="0.2"/>
<path fill-rule="evenodd" clip-rule="evenodd" d="M39.928 6.05883H42.796V7.01483C43.752 5.58083 45.664 5.58083 47.577 6.05883C47.099 7.01483 46.621 7.49283 46.621 8.44883C44.709 7.97083 42.797 8.92683 42.797 10.3608V17.5318C42.318 18.9708 40.884 18.9708 39.928 18.9708V6.05883Z" fill="#172327" fill-opacity="0.2"/>
<path fill-rule="evenodd" clip-rule="evenodd" d="M51.879 6.05984C56.66 4.14784 61.44 8.92785 60.479 13.7088C59.518 18.4898 52.83 20.8798 49.479 17.5328C45.655 14.1868 47.089 7.01584 51.869 6.05984H51.879ZM53.313 8.44985C52.5102 8.664 51.7782 9.08611 51.1907 9.67358C50.6032 10.2611 50.1811 10.9931 49.967 11.7958C49.8689 12.3413 49.8959 12.9018 50.0461 13.4353C50.1963 13.9687 50.4657 14.4611 50.834 14.8752C51.2022 15.2893 51.6598 15.6143 52.172 15.8258C52.6843 16.0372 53.2378 16.1296 53.791 16.0958C55.703 16.0958 57.615 14.6618 57.615 12.7498C57.615 10.3618 55.226 7.97185 53.315 8.44985H53.313Z" fill="#172327" fill-opacity="0.2"/>
<path fill-rule="evenodd" clip-rule="evenodd" d="M62.397 6.05903H65.265V7.01503C66.5721 6.10866 68.1632 5.70614 69.7441 5.88187C71.325 6.05761 72.7888 6.79972 73.865 7.97103C74.456 8.58531 74.9147 9.31425 75.2128 10.1128C75.5109 10.9114 75.6421 11.7626 75.5983 12.6139C75.5544 13.4652 75.3364 14.2984 74.9578 15.0621C74.5792 15.8258 74.048 16.5037 73.397 17.054C71.485 19.444 67.66 19.444 65.27 18.01V22.31C64.792 23.744 63.358 23.744 62.402 23.744V6.05903H62.397ZM68.612 8.44903C65.744 8.92703 64.312 12.273 65.744 14.186C67.178 16.576 71.003 16.576 71.959 14.186C73.87 11.795 71.48 8.44903 68.612 8.44903Z" fill="#172327" fill-opacity="0.2"/>
<path fill-rule="evenodd" clip-rule="evenodd" d="M80.563 6.53782C81.7729 5.85935 83.1682 5.58612 84.5447 5.75815C85.9211 5.93018 87.2063 6.53844 88.212 7.49382C87.734 7.97182 87.256 8.92782 86.3 9.40582C85.8544 9.04481 85.331 8.79233 84.771 8.66831C84.2111 8.54429 83.63 8.55212 83.0736 8.69119C82.5173 8.83026 82.0008 9.09676 81.5651 9.46965C81.1294 9.84254 80.7863 10.3116 80.563 10.8398C80.3552 11.4059 80.2808 12.0122 80.3454 12.6118C80.4101 13.2113 80.6121 13.7878 80.9358 14.2966C81.2595 14.8053 81.6961 15.2326 82.2118 15.5452C82.7274 15.8577 83.3082 16.0472 83.909 16.0988C84.865 16.0988 85.821 15.6208 86.777 15.6208C87.6309 15.9968 88.313 16.6789 88.689 17.5328C85.343 20.4008 79.606 19.4448 78.172 15.1428C76.26 12.2738 77.694 8.44782 80.563 6.53782Z" fill="#172327" fill-opacity="0.2"/>
<path fill-rule="evenodd" clip-rule="evenodd" d="M88.69 14.6638C87.258 10.3618 90.602 5.58081 94.905 5.58081C96.6261 5.65594 98.2713 6.31086 99.5731 7.43916C100.875 8.56746 101.757 10.1028 102.076 11.7958V18.9668C100.642 18.9668 99.686 18.9668 98.73 18.0108C95.384 20.4008 90.13 18.4888 88.691 14.6648L88.69 14.6638ZM94.905 8.44881C94.2466 8.57267 93.6274 8.85222 93.0991 9.26412C92.5708 9.67602 92.1487 10.2083 91.868 10.8166C91.5873 11.4249 91.4562 12.0914 91.4856 12.7607C91.515 13.43 91.704 14.0825 92.037 14.6638C93.949 17.0538 97.774 16.5758 98.73 14.1858C98.9748 13.5554 99.0643 12.8754 98.9909 12.2031C98.9174 11.5308 98.6833 10.8861 98.3081 10.3235C97.933 9.76081 97.4279 9.29672 96.8356 8.97042C96.2432 8.64413 95.5811 8.46522 94.905 8.44881Z" fill="#172327" fill-opacity="0.2"/>
<path fill-rule="evenodd" clip-rule="evenodd" d="M103.988 6.05985H106.856V7.01585C108.29 5.10385 111.637 5.58185 113.549 7.49385C115.939 4.62585 120.72 5.58185 121.676 8.92785C122.154 11.7958 121.676 15.1428 121.676 18.0108C121.676 18.9668 120.242 18.9668 118.808 18.9668C118.808 16.0988 119.286 13.2298 118.808 10.3668C118.714 9.86495 118.448 9.41158 118.056 9.08531C117.663 8.75905 117.169 8.58043 116.658 8.58043C116.147 8.58043 115.653 8.75905 115.26 9.08531C114.868 9.41158 114.602 9.86495 114.508 10.3668V18.9668H111.64C111.719 15.9313 111.559 12.8943 111.162 9.88385C110.684 7.97185 107.338 8.44985 107.338 10.3618C106.941 13.2103 106.781 16.0869 106.86 18.9618H103.988V6.05985Z" fill="#172327" fill-opacity="0.2"/>
</g>
<defs>
<clipPath id="clip0_360_21649">
<rect width="121.516" height="23.743" fill="white" transform="translate(0.372986)"/>
</clipPath>
</defs>
</svg>
