<svg width="83" height="20" viewBox="0 0 83 20" fill="none" xmlns="http://www.w3.org/2000/svg">
<g clip-path="url(#clip0_360_21639)">
<path d="M19.831 18.332H15.264L13.864 14.963H6.25698L4.98398 18.332H0.492981L7.35398 1.315H12.27L19.831 18.332ZM9.87498 5.381L7.37498 11.993H12.615L9.87498 5.381ZM36.418 1.315H40.111V18.332H35.869V7.7L31.278 13.039H30.629L26.038 7.7V18.332H21.793V1.315H25.493L30.953 7.628L36.418 1.315ZM50.86 1.315C57.073 1.315 60.266 5.182 60.266 9.848C60.266 14.738 57.172 18.332 50.386 18.332H43.349V1.315H50.86ZM47.593 15.213H50.362C54.629 15.213 55.901 12.313 55.901 9.822C55.901 6.902 54.329 4.433 50.312 4.433H47.593V15.213ZM68.705 5.35L63.356 0H82.829V19.474L77.48 14.125V5.35H68.705ZM68.699 6.422L63.193 11.929V19.638H70.901L76.408 14.131H68.699V6.422Z" fill="#172327" fill-opacity="0.2"/>
</g>
<defs>
<clipPath id="clip0_360_21639">
<rect width="82.336" height="19.638" fill="white" transform="translate(0.492981)"/>
</clipPath>
</defs>
</svg>
