<svg width="167" height="29" viewBox="0 0 167 29" fill="none" xmlns="http://www.w3.org/2000/svg">
<path d="M9.33 22.3C7.11 22.3 5.24 21.75 3.72 20.65C2.22 19.53 1.15 17.92 0.51 15.82L5.28 14.05C5.68 15.27 6.21 16.17 6.87 16.75C7.53 17.33 8.36 17.62 9.36 17.62C10.48 17.62 11.39 17.25 12.09 16.51C12.79 15.77 13.14 14.8 13.14 13.6V0.999999H18.3V13.75C18.3 15.45 17.92 16.94 17.16 18.22C16.42 19.5 15.38 20.5 14.04 21.22C12.7 21.94 11.13 22.3 9.33 22.3ZM29.1361 22.3C27.5161 22.3 26.0561 21.94 24.7561 21.22C23.4561 20.48 22.4261 19.49 21.6661 18.25C20.9061 17.01 20.5261 15.62 20.5261 14.08C20.5261 12.54 20.9061 11.15 21.6661 9.91C22.4261 8.65 23.4561 7.66 24.7561 6.94C26.0561 6.2 27.5161 5.83 29.1361 5.83C30.7561 5.83 32.2161 6.2 33.5161 6.94C34.8161 7.66 35.8461 8.65 36.6061 9.91C37.3661 11.15 37.7461 12.54 37.7461 14.08C37.7461 15.62 37.3661 17.01 36.6061 18.25C35.8461 19.49 34.8161 20.48 33.5161 21.22C32.2161 21.94 30.7561 22.3 29.1361 22.3ZM29.1361 18.1C29.8761 18.1 30.5361 17.92 31.1161 17.56C31.6961 17.2 32.1561 16.72 32.4961 16.12C32.8361 15.5 33.0061 14.82 33.0061 14.08C33.0061 13.32 32.8361 12.64 32.4961 12.04C32.1561 11.42 31.6861 10.93 31.0861 10.57C30.5061 10.21 29.8561 10.03 29.1361 10.03C28.4161 10.03 27.7561 10.21 27.1561 10.57C26.5761 10.93 26.1161 11.42 25.7761 12.04C25.4361 12.64 25.2661 13.32 25.2661 14.08C25.2661 14.82 25.4361 15.5 25.7761 16.12C26.1161 16.72 26.5761 17.2 27.1561 17.56C27.7561 17.92 28.4161 18.1 29.1361 18.1ZM40.0254 22V0.999999L44.8854 0.249999V7.24C46.1254 6.36 47.5254 5.92 49.0854 5.92C50.6054 5.92 51.9754 6.29 53.1954 7.03C54.4154 7.75 55.3854 8.73 56.1054 9.97C56.8254 11.19 57.1854 12.56 57.1854 14.08C57.1854 15.6 56.8154 16.98 56.0754 18.22C55.3554 19.44 54.3654 20.41 53.1054 21.13C51.8654 21.85 50.4754 22.21 48.9354 22.21C48.1954 22.21 47.4754 22.12 46.7754 21.94C46.0754 21.74 45.4254 21.46 44.8254 21.1V22H40.0254ZM48.2454 18.1C49.0454 18.1 49.7554 17.93 50.3754 17.59C50.9954 17.23 51.4854 16.75 51.8454 16.15C52.2254 15.53 52.4154 14.84 52.4154 14.08C52.4154 13.32 52.2254 12.64 51.8454 12.04C51.4854 11.42 50.9854 10.94 50.3454 10.6C49.7254 10.24 49.0254 10.06 48.2454 10.06C47.5654 10.06 46.9454 10.17 46.3854 10.39C45.8254 10.59 45.3254 10.9 44.8854 11.32V16.87C45.3054 17.25 45.8054 17.55 46.3854 17.77C46.9654 17.99 47.5854 18.1 48.2454 18.1Z" fill="#00AA45"/>
<path d="M59.4785 28.12V6.13H64.2785V7.3C65.5385 6.38 66.9585 5.92 68.5385 5.92C70.0585 5.92 71.4285 6.29 72.6485 7.03C73.8685 7.75 74.8385 8.73 75.5585 9.97C76.2785 11.19 76.6385 12.56 76.6385 14.08C76.6385 15.6 76.2685 16.98 75.5285 18.22C74.8085 19.44 73.8185 20.41 72.5585 21.13C71.3185 21.85 69.9285 22.21 68.3885 22.21C67.6485 22.21 66.9385 22.12 66.2585 21.94C65.5785 21.76 64.9385 21.5 64.3385 21.16V28.12H59.4785ZM67.6985 18.1C68.4985 18.1 69.2085 17.93 69.8285 17.59C70.4485 17.23 70.9385 16.75 71.2985 16.15C71.6785 15.53 71.8685 14.84 71.8685 14.08C71.8685 13.32 71.6785 12.64 71.2985 12.04C70.9385 11.42 70.4385 10.94 69.7985 10.6C69.1785 10.24 68.4785 10.06 67.6985 10.06C67.0185 10.06 66.3985 10.17 65.8385 10.39C65.2785 10.59 64.7785 10.9 64.3385 11.32V16.87C64.7585 17.25 65.2585 17.55 65.8385 17.77C66.4185 17.99 67.0385 18.1 67.6985 18.1ZM84.1481 22.27C83.0281 22.27 82.0281 22.06 81.1481 21.64C80.2881 21.22 79.6081 20.64 79.1081 19.9C78.6281 19.16 78.3881 18.31 78.3881 17.35C78.3881 15.83 78.9581 14.66 80.0981 13.84C81.2581 13 82.8681 12.58 84.9281 12.58C86.1681 12.58 87.3681 12.73 88.5281 13.03V12.25C88.5281 11.45 88.2681 10.86 87.7481 10.48C87.2481 10.08 86.4981 9.88 85.4981 9.88C84.8781 9.88 84.1781 9.98 83.3981 10.18C82.6381 10.38 81.7381 10.7 80.6981 11.14L78.9581 7.57C80.2581 6.99 81.5081 6.56 82.7081 6.28C83.9281 5.98 85.1481 5.83 86.3681 5.83C88.5681 5.83 90.2781 6.36 91.4981 7.42C92.7181 8.46 93.3281 9.93 93.3281 11.83V22H88.5281V21.04C87.8881 21.48 87.2081 21.8 86.4881 22C85.7881 22.18 85.0081 22.27 84.1481 22.27ZM83.0081 17.26C83.0081 17.76 83.2281 18.15 83.6681 18.43C84.1081 18.71 84.7181 18.85 85.4981 18.85C86.0781 18.85 86.6181 18.79 87.1181 18.67C87.6381 18.55 88.1081 18.36 88.5281 18.1V16.06C88.0681 15.94 87.5981 15.85 87.1181 15.79C86.6381 15.73 86.1481 15.7 85.6481 15.7C84.8081 15.7 84.1581 15.84 83.6981 16.12C83.2381 16.38 83.0081 16.76 83.0081 17.26ZM96.2168 22V0.999999L101.077 0.249999V12.61L107.407 6.13H112.837L105.787 13.3L113.317 22H107.167L101.077 14.89V22H96.2168ZM118.748 22.27C117.628 22.27 116.628 22.06 115.748 21.64C114.888 21.22 114.208 20.64 113.708 19.9C113.228 19.16 112.988 18.31 112.988 17.35C112.988 15.83 113.558 14.66 114.698 13.84C115.858 13 117.468 12.58 119.528 12.58C120.768 12.58 121.968 12.73 123.128 13.03V12.25C123.128 11.45 122.868 10.86 122.348 10.48C121.848 10.08 121.098 9.88 120.098 9.88C119.478 9.88 118.778 9.98 117.998 10.18C117.238 10.38 116.338 10.7 115.298 11.14L113.558 7.57C114.858 6.99 116.108 6.56 117.308 6.28C118.528 5.98 119.748 5.83 120.968 5.83C123.168 5.83 124.878 6.36 126.098 7.42C127.318 8.46 127.928 9.93 127.928 11.83V22H123.128V21.04C122.488 21.48 121.808 21.8 121.088 22C120.388 22.18 119.608 22.27 118.748 22.27ZM117.608 17.26C117.608 17.76 117.828 18.15 118.268 18.43C118.708 18.71 119.318 18.85 120.098 18.85C120.678 18.85 121.218 18.79 121.718 18.67C122.238 18.55 122.708 18.36 123.128 18.1V16.06C122.668 15.94 122.198 15.85 121.718 15.79C121.238 15.73 120.748 15.7 120.248 15.7C119.408 15.7 118.758 15.84 118.298 16.12C117.838 16.38 117.608 16.76 117.608 17.26ZM138.196 22.21C136.696 22.21 135.326 21.85 134.086 21.13C132.866 20.39 131.896 19.41 131.176 18.19C130.456 16.95 130.096 15.57 130.096 14.05C130.096 12.53 130.456 11.16 131.176 9.94C131.916 8.7 132.906 7.72 134.146 7C135.406 6.28 136.806 5.92 138.346 5.92C139.086 5.92 139.796 6.01 140.476 6.19C141.156 6.37 141.796 6.63 142.396 6.97V0.999999L147.256 0.249999V22H142.456V20.83C141.196 21.75 139.776 22.21 138.196 22.21ZM139.036 18.07C139.716 18.07 140.336 17.97 140.896 17.77C141.456 17.55 141.956 17.23 142.396 16.81V11.26C141.976 10.86 141.476 10.56 140.896 10.36C140.316 10.14 139.696 10.03 139.036 10.03C138.256 10.03 137.546 10.21 136.906 10.57C136.286 10.91 135.786 11.39 135.406 12.01C135.046 12.61 134.866 13.29 134.866 14.05C134.866 14.81 135.046 15.5 135.406 16.12C135.786 16.72 136.286 17.2 136.906 17.56C137.546 17.9 138.256 18.07 139.036 18.07ZM158.16 22.3C156.54 22.3 155.08 21.94 153.78 21.22C152.48 20.48 151.45 19.49 150.69 18.25C149.93 17.01 149.55 15.62 149.55 14.08C149.55 12.54 149.93 11.15 150.69 9.91C151.45 8.65 152.48 7.66 153.78 6.94C155.08 6.2 156.54 5.83 158.16 5.83C159.78 5.83 161.24 6.2 162.54 6.94C163.84 7.66 164.87 8.65 165.63 9.91C166.39 11.15 166.77 12.54 166.77 14.08C166.77 15.62 166.39 17.01 165.63 18.25C164.87 19.49 163.84 20.48 162.54 21.22C161.24 21.94 159.78 22.3 158.16 22.3ZM158.16 18.1C158.9 18.1 159.56 17.92 160.14 17.56C160.72 17.2 161.18 16.72 161.52 16.12C161.86 15.5 162.03 14.82 162.03 14.08C162.03 13.32 161.86 12.64 161.52 12.04C161.18 11.42 160.71 10.93 160.11 10.57C159.53 10.21 158.88 10.03 158.16 10.03C157.44 10.03 156.78 10.21 156.18 10.57C155.6 10.93 155.14 11.42 154.8 12.04C154.46 12.64 154.29 13.32 154.29 14.08C154.29 14.82 154.46 15.5 154.8 16.12C155.14 16.72 155.6 17.2 156.18 17.56C156.78 17.92 157.44 18.1 158.16 18.1Z" fill="#172327"/>
</svg>
