<svg width="83" height="25" viewBox="0 0 83 25" fill="none" xmlns="http://www.w3.org/2000/svg">
<g clip-path="url(#clip0_360_21663)">
<path d="M0.888916 17.57V0.364H3.91092V17.57H0.888916ZM11.6479 5.088C10.7928 5.06873 9.9425 5.22077 9.14705 5.53515C8.3516 5.84954 7.6271 6.31992 7.01622 6.91858C6.40535 7.51725 5.92044 8.23211 5.59006 9.02105C5.25968 9.80999 5.09051 10.6571 5.09251 11.5124C5.09451 12.3677 5.26765 13.214 5.60172 14.0014C5.93578 14.7887 6.42403 15.5013 7.03771 16.0971C7.65138 16.6929 8.37807 17.1599 9.17498 17.4706C9.97189 17.7812 10.8229 17.9293 11.6779 17.906C12.5263 17.9144 13.3678 17.7544 14.1539 17.4351C14.9399 17.1158 15.6547 16.6437 16.2569 16.046C16.8591 15.4484 17.3366 14.7372 17.6618 13.9536C17.9871 13.17 18.1535 12.3297 18.1515 11.4813C18.1496 10.6329 17.9792 9.79337 17.6503 9.01133C17.3214 8.22928 16.8405 7.52031 16.2355 6.92551C15.6306 6.33071 14.9136 5.86193 14.126 5.54633C13.3385 5.23073 12.4962 5.07461 11.6479 5.087V5.088ZM11.6129 8C12.4135 7.99747 13.1902 8.27247 13.8108 8.77819C14.4314 9.28391 14.8576 9.98909 15.0167 10.7737C15.1759 11.5583 15.0582 12.3738 14.6838 13.0814C14.3093 13.789 13.7012 14.3449 12.9629 14.6545C12.2246 14.9642 11.4019 15.0084 10.6347 14.7797C9.86746 14.5509 9.20325 14.0633 8.75511 13.3999C8.30696 12.7366 8.10258 11.9384 8.17675 11.1412C8.25092 10.3441 8.59907 9.59731 9.16192 9.028C9.81141 8.37556 10.6923 8.00609 11.6129 8ZM25.7769 5.088C24.9218 5.06873 24.0715 5.22077 23.276 5.53515C22.4806 5.84954 21.7561 6.31992 21.1452 6.91858C20.5343 7.51725 20.0494 8.23211 19.7191 9.02105C19.3887 9.80999 19.2195 10.6571 19.2215 11.5124C19.2235 12.3677 19.3966 13.214 19.7307 14.0014C20.0648 14.7887 20.553 15.5013 21.1667 16.0971C21.7804 16.6929 22.5071 17.1599 23.304 17.4706C24.1009 17.7812 24.9519 17.9293 25.8069 17.906C26.6609 17.9268 27.5102 17.775 28.3041 17.4597C29.098 17.1444 29.82 16.6721 30.427 16.071C31.0339 15.4699 31.5133 14.7525 31.8363 13.9617C32.1594 13.171 32.3194 12.3231 32.3069 11.469C32.3917 10.2907 32.0412 9.12217 31.3219 8.185L32.1599 7.898V5.445H27.8729C27.1974 5.21092 26.4878 5.09029 25.7729 5.088H25.7769ZM25.7419 8C26.5424 7.99793 27.3189 8.27333 27.9392 8.77931C28.5595 9.28529 28.9852 9.99059 29.144 10.7752C29.3029 11.5597 29.1849 12.3751 28.8102 13.0825C28.4355 13.7899 27.8272 14.3455 27.089 14.6549C26.3507 14.9643 25.528 15.0083 24.7609 14.7794C23.9939 14.5505 23.3298 14.0629 22.8818 13.3995C22.4338 12.7362 22.2295 11.938 22.3038 11.141C22.378 10.3439 22.7261 9.59725 23.2889 9.028C23.9389 8.37508 24.8206 8.00556 25.7419 8ZM29.2419 18.408C29.2419 19.3331 28.8744 20.2203 28.2203 20.8744C27.5662 21.5285 26.679 21.896 25.7539 21.896C24.8288 21.896 23.9417 21.5285 23.2875 20.8744C22.6334 20.2203 22.2659 19.3331 22.2659 18.408H19.1989C19.1846 19.2701 19.3464 20.126 19.6746 20.9233C20.0028 21.7206 20.4903 22.4425 21.1073 23.0447C21.7243 23.6469 22.4578 24.1168 23.2628 24.4255C24.0679 24.7342 24.9274 24.8752 25.7889 24.84C26.6424 24.8618 27.4914 24.7109 28.2851 24.3965C29.0788 24.0821 29.8009 23.6106 30.4079 23.0103C31.0149 22.41 31.4944 21.6933 31.8177 20.9031C32.1409 20.1129 32.3012 19.2656 32.2889 18.412L29.2419 18.408ZM33.5239 17.567V5.445H36.5469V17.57L33.5239 17.567ZM39.4809 17.567V8.161H37.8599V5.445H39.4809V1.722H42.5029V5.445H44.1679V8.161H42.5029V17.57L39.4809 17.567ZM37.0299 2C37.0299 2.39556 36.9126 2.78224 36.6929 3.11114C36.4731 3.44004 36.1607 3.69638 35.7953 3.84776C35.4298 3.99913 35.0277 4.03874 34.6397 3.96157C34.2518 3.8844 33.8954 3.69392 33.6157 3.41421C33.336 3.13451 33.1455 2.77814 33.0683 2.39018C32.9912 2.00222 33.0308 1.60009 33.1822 1.23463C33.3335 0.869181 33.5899 0.556824 33.9188 0.337061C34.2477 0.117298 34.6344 0 35.0299 0C35.5603 0 36.0691 0.210714 36.4441 0.585786C36.8192 0.960859 37.0299 1.46957 37.0299 2ZM50.9629 5.08C50.1085 5.06267 49.2596 5.21999 48.4681 5.54231C47.6766 5.86463 46.9593 6.34518 46.3601 6.95449C45.7609 7.5638 45.2925 8.28906 44.9834 9.0858C44.6744 9.88255 44.5313 10.734 44.5629 11.588C44.5279 12.4402 44.6723 13.2903 44.9868 14.0832C45.3013 14.8761 45.7789 15.594 46.3886 16.1905C46.9983 16.787 47.7265 17.2487 48.526 17.5458C49.3256 17.8429 50.1786 17.9687 51.0299 17.915C52.0571 17.9475 53.0793 17.7589 54.0273 17.3621C54.9754 16.9653 55.8271 16.3695 56.5249 15.615L54.5049 13.592C53.5986 14.5413 52.3766 15.1266 51.0689 15.238C50.3105 15.2678 49.5654 15.0327 48.9614 14.5731C48.3574 14.1135 47.9323 13.4579 47.7589 12.719H57.1769V11.887C57.1769 8.566 55.2549 5.081 50.9679 5.081L50.9629 5.08ZM50.8629 7.741C51.6054 7.69831 52.3372 7.9329 52.9165 8.39928C53.4957 8.86565 53.8811 9.53055 53.9979 10.265H47.6679C47.8165 9.53374 48.2196 8.87884 48.8055 8.41672C49.3914 7.95459 50.1222 7.71517 50.8679 7.741H50.8629ZM64.7319 17.916C63.8888 17.9169 63.0538 17.7516 62.2746 17.4298C61.4954 17.1079 60.7871 16.6358 60.1904 16.0402C58.9852 14.8375 58.3071 13.2052 58.3054 11.5025C58.3037 9.79981 58.9784 8.16617 60.1812 6.96097C61.384 5.75577 63.0162 5.07772 64.7189 5.076C65.7088 5.06859 66.6879 5.28239 67.5846 5.70176C68.4813 6.12114 69.273 6.73551 69.9019 7.5L67.7889 9.6C67.4114 9.13765 66.942 8.75867 66.4105 8.48705C65.8789 8.21543 65.2968 8.05708 64.7009 8.022C64.242 8.01057 63.7855 8.09221 63.3589 8.26199C62.9324 8.43177 62.5446 8.68618 62.2191 9.00987C61.8935 9.33357 61.6369 9.71984 61.4646 10.1454C61.2924 10.571 61.2081 11.027 61.2169 11.486C61.2053 11.9461 61.2865 12.4037 61.4556 12.8318C61.6247 13.2598 61.8783 13.6494 62.2012 13.9773C62.5241 14.3052 62.9097 14.5648 63.335 14.7405C63.7604 14.9162 64.2167 15.0044 64.6769 15C65.2773 14.9688 65.8644 14.8121 66.4004 14.5399C66.9365 14.2678 67.4095 13.8863 67.7889 13.42L69.9189 15.52C69.2882 16.282 68.4949 16.8931 67.5971 17.3084C66.6994 17.7237 65.72 17.9327 64.7309 17.92L64.7319 17.916ZM71.0199 17.579V0.32H74.0419V6.661C74.4965 6.13835 75.0629 5.72463 75.699 5.45044C76.3351 5.17626 77.0248 5.04863 77.7169 5.077C80.8819 5.077 82.7169 7.43 82.7169 10.439V17.579H79.6889V10.9C79.7343 10.5312 79.6987 10.157 79.5844 9.80348C79.4701 9.44994 79.28 9.12564 79.0273 8.85324C78.7746 8.58085 78.4655 8.36694 78.1215 8.22647C77.7775 8.086 77.407 8.02236 77.0359 8.04C76.6323 8.00791 76.2266 8.06407 75.8469 8.20458C75.4672 8.3451 75.1226 8.56659 74.8372 8.85368C74.5517 9.14077 74.3321 9.48657 74.1938 9.86706C74.0554 10.2475 74.0015 10.6536 74.0359 11.057V17.584H71.0199V17.579Z" fill="#172327" fill-opacity="0.2"/>
</g>
<defs>
<clipPath id="clip0_360_21663">
<rect width="81.828" height="24.845" fill="white" transform="translate(0.888916)"/>
</clipPath>
</defs>
</svg>
