<svg width="100" height="30" viewBox="0 0 100 30" fill="none" xmlns="http://www.w3.org/2000/svg">
<g clip-path="url(#clip0_360_21665)">
<path d="M15.4731 3.38876e-08C12.5546 0.000197812 9.70181 0.86579 7.27533 2.48732C4.84885 4.10885 2.95769 6.41349 1.841 9.10982C0.724308 11.8061 0.432233 14.773 1.00171 17.6354C1.57119 20.4977 2.97664 23.1269 5.04034 25.1904C7.10404 27.254 9.73331 28.6593 12.5957 29.2285C15.458 29.7978 18.4249 29.5055 21.1212 28.3887C23.8174 27.2718 26.1219 25.3805 27.7433 22.9539C29.3647 20.5273 30.2301 17.6744 30.2301 14.756C30.2301 12.8181 29.8483 10.8992 29.1067 9.10889C28.3651 7.31855 27.2781 5.69181 25.9078 4.32158C24.5374 2.95134 22.9106 1.86445 21.1202 1.12295C19.3298 0.381447 17.4109 -0.000131294 15.4731 3.38876e-08ZM22.2401 21.282C22.1767 21.3848 22.0938 21.4741 21.9959 21.5448C21.898 21.6155 21.7872 21.6663 21.6697 21.6941C21.5522 21.722 21.4304 21.7264 21.3112 21.7072C21.192 21.6879 21.0778 21.6454 20.9751 21.582C17.5101 19.466 13.1491 18.982 8.01205 20.16C7.77416 20.2142 7.52445 20.1717 7.31788 20.0419C7.11131 19.912 6.96479 19.7054 6.91055 19.4675C6.85632 19.2296 6.89881 18.9799 7.02868 18.7733C7.15855 18.5668 7.36516 18.4202 7.60305 18.366C13.2241 17.082 18.0461 17.635 21.9351 20.012C22.0388 20.075 22.1291 20.158 22.2007 20.2561C22.2722 20.3541 22.3237 20.4654 22.352 20.5835C22.3804 20.7015 22.3851 20.824 22.3659 20.9439C22.3466 21.0638 22.3039 21.1787 22.2401 21.282ZM24.0461 17.264C23.8866 17.5241 23.6303 17.7102 23.3337 17.7814C23.0371 17.8527 22.7243 17.8032 22.4641 17.644C17.9851 15.1469 12.6987 14.528 7.76405 15.923C7.47232 16.0122 7.15707 15.9819 6.88768 15.8388C6.61828 15.6956 6.4168 15.4512 6.32755 15.1595C6.23831 14.8678 6.26861 14.5525 6.4118 14.2831C6.55498 14.0137 6.79932 13.8122 7.09105 13.723C9.84491 12.9302 12.7293 12.6952 15.5752 13.0318C18.4211 13.3683 21.1711 14.2697 23.6641 15.683C23.7928 15.762 23.9048 15.8655 23.9936 15.9878C24.0823 16.11 24.1461 16.2486 24.1813 16.3955C24.2165 16.5424 24.2224 16.6948 24.1987 16.844C24.175 16.9932 24.1221 17.1362 24.0431 17.265L24.0461 17.264ZM24.2011 13.08C19.4451 10.255 11.6011 9.995 7.05805 11.374C6.88355 11.4305 6.69953 11.4516 6.51677 11.4361C6.334 11.4207 6.15615 11.3689 5.99362 11.2839C5.83108 11.199 5.68712 11.0824 5.57015 10.9411C5.45318 10.7999 5.36554 10.6367 5.31237 10.4611C5.25919 10.2856 5.24155 10.1012 5.26046 9.91877C5.27937 9.73633 5.33446 9.55949 5.42251 9.39858C5.51056 9.23768 5.62981 9.09595 5.77327 8.98167C5.91673 8.86738 6.08154 8.78285 6.25805 8.733C11.4701 7.151 20.1351 7.456 25.6111 10.707C25.7669 10.7994 25.9031 10.9217 26.0117 11.0668C26.1203 11.2118 26.1993 11.3769 26.2442 11.5525C26.289 11.7281 26.2989 11.9108 26.2731 12.0902C26.2473 12.2696 26.1865 12.4421 26.0941 12.598C26.0016 12.7539 25.8794 12.89 25.7343 12.9987C25.5892 13.1073 25.4242 13.1863 25.2486 13.2311C25.073 13.276 24.8903 13.2858 24.7109 13.2601C24.5315 13.2343 24.3589 13.1734 24.2031 13.081L24.2011 13.08ZM40.8641 13.623C38.3161 13.015 37.8641 12.589 37.8641 11.693C37.8641 10.846 38.6641 10.277 39.8461 10.277C41.1207 10.3225 42.3448 10.7876 43.3281 11.6C43.3459 11.6132 43.3663 11.6227 43.3878 11.628C43.4094 11.6333 43.4318 11.6342 43.4538 11.6308C43.4757 11.6273 43.4968 11.6196 43.5157 11.6079C43.5346 11.5963 43.5511 11.581 43.5641 11.563L44.8081 9.809C44.8327 9.77422 44.8431 9.73134 44.8372 9.68914C44.8312 9.64694 44.8093 9.60861 44.7761 9.582C43.3975 8.45437 41.6638 7.85203 39.8831 7.882C37.1321 7.882 35.2101 9.533 35.2101 11.895C35.2101 14.428 36.8681 15.325 39.7331 16.017C42.1701 16.579 42.5821 17.049 42.5821 17.89C42.5821 18.822 41.7501 19.402 40.4111 19.402C38.8923 19.3903 37.4374 18.7894 36.3531 17.726C36.3192 17.6972 36.2755 17.6825 36.2311 17.685C36.209 17.6865 36.1874 17.6924 36.1677 17.7023C36.1479 17.7123 36.1304 17.7261 36.1161 17.743L34.7161 19.403C34.688 19.4363 34.674 19.4793 34.6769 19.5227C34.6799 19.5662 34.6997 19.6068 34.7321 19.636C36.2703 21.0298 38.2743 21.7977 40.3501 21.789C43.3141 21.789 45.2291 20.17 45.2291 17.662C45.2341 15.546 43.9671 14.374 40.8641 13.62H40.8591L40.8641 13.623ZM51.9401 11.11C51.3223 11.1019 50.7111 11.237 50.1544 11.5047C49.5976 11.7724 49.1105 12.1655 48.7311 12.653V11.485C48.7312 11.4631 48.727 11.4414 48.7187 11.4212C48.7104 11.4009 48.6982 11.3825 48.6828 11.367C48.6674 11.3515 48.649 11.3391 48.6288 11.3307C48.6086 11.3223 48.5869 11.318 48.5651 11.318H46.2841C46.2622 11.318 46.2405 11.3223 46.2203 11.3307C46.2001 11.3391 46.1817 11.3515 46.1663 11.367C46.1509 11.3825 46.1387 11.4009 46.1304 11.4212C46.1221 11.4414 46.1179 11.4631 46.1181 11.485V24.454C46.1181 24.4981 46.1355 24.5404 46.1666 24.5717C46.1977 24.603 46.2399 24.6207 46.2841 24.621H48.5641C48.6082 24.6207 48.6504 24.603 48.6815 24.5717C48.7126 24.5404 48.7301 24.4981 48.7301 24.454V20.361C49.1234 20.8263 49.6156 21.198 50.1707 21.4492C50.7258 21.7003 51.3299 21.8246 51.9391 21.813C54.3271 21.813 56.7441 19.975 56.7441 16.462C56.7441 12.949 54.3301 11.109 51.9441 11.109L51.9401 11.11ZM54.0921 16.462C54.132 16.8408 54.0929 17.2237 53.9771 17.5865C53.8613 17.9493 53.6714 18.2842 53.4195 18.5698C53.1675 18.8554 52.859 19.0855 52.5134 19.2457C52.1679 19.4058 51.7928 19.4924 51.4121 19.5C51.0304 19.4878 50.6551 19.3986 50.3087 19.2378C49.9623 19.0769 49.652 18.8478 49.3964 18.564C49.1408 18.2803 48.9451 17.9479 48.8212 17.5866C48.6972 17.2254 48.6475 16.8429 48.6751 16.462C48.6474 16.081 48.697 15.6984 48.8209 15.337C48.9448 14.9757 49.1404 14.6431 49.396 14.3593C49.6516 14.0755 49.962 13.8462 50.3084 13.6853C50.6549 13.5244 51.0303 13.4352 51.4121 13.423C51.7913 13.435 52.1641 13.5245 52.5075 13.686C52.8508 13.8476 53.1575 14.0777 53.4085 14.3622C53.6596 14.6467 53.8498 14.9796 53.9673 15.3404C54.0849 15.7012 54.1273 16.0822 54.0921 16.46V16.462ZM62.9391 11.11C61.8824 11.1299 60.8552 11.4616 59.9864 12.0633C59.1176 12.665 58.446 13.5101 58.0559 14.4922C57.6657 15.4744 57.5745 16.55 57.7936 17.5839C58.0127 18.6177 58.5323 19.5638 59.2873 20.3033C60.0423 21.0428 60.999 21.5428 62.0371 21.7404C63.0753 21.9381 64.1488 21.8246 65.1227 21.4142C66.0965 21.0038 66.9275 20.3148 67.5111 19.4337C68.0947 18.5527 68.405 17.5188 68.4031 16.462C68.3994 15.7507 68.2548 15.0472 67.9776 14.3922C67.7003 13.7372 67.2959 13.1436 66.7878 12.6459C66.2796 12.1482 65.6778 11.7562 65.0172 11.4925C64.3566 11.2289 63.6502 11.0989 62.9391 11.11ZM62.9391 19.518C62.5473 19.5144 62.1604 19.4314 61.8017 19.2742C61.4429 19.1169 61.1197 18.8886 60.8516 18.603C60.5835 18.3174 60.376 17.9805 60.2417 17.6125C60.1073 17.2445 60.049 16.8532 60.0701 16.462C60.0447 16.0747 60.0992 15.6864 60.2301 15.3211C60.361 14.9557 60.5656 14.6211 60.8311 14.3381C61.0966 14.055 61.4174 13.8295 61.7737 13.6756C62.1299 13.5216 62.514 13.4424 62.9021 13.443C63.2949 13.4457 63.6831 13.528 64.0432 13.6848C64.4034 13.8416 64.7281 14.0696 64.9978 14.3553C65.2674 14.6409 65.4765 14.9782 65.6123 15.3468C65.7481 15.7154 65.8079 16.1077 65.7881 16.5C65.8125 16.8884 65.7568 17.2777 65.6244 17.6437C65.4921 18.0097 65.286 18.3446 65.0188 18.6276C64.7517 18.9106 64.4292 19.1356 64.0714 19.2888C63.7137 19.442 63.3282 19.52 62.9391 19.518ZM74.9691 11.318H72.4581V8.751C72.4582 8.72912 72.454 8.70742 72.4457 8.68717C72.4374 8.66691 72.4252 8.64849 72.4098 8.63297C72.3944 8.61745 72.376 8.60513 72.3558 8.59673C72.3356 8.58833 72.3139 8.584 72.2921 8.584H70.0111C69.9668 8.58426 69.9245 8.60194 69.8933 8.6332C69.862 8.66446 69.8443 8.70679 69.8441 8.751V11.318H68.7441C68.7222 11.318 68.7005 11.3223 68.6803 11.3307C68.6601 11.3391 68.6417 11.3515 68.6263 11.367C68.6109 11.3825 68.5987 11.4009 68.5904 11.4212C68.5821 11.4414 68.5779 11.4631 68.5781 11.485V13.446C68.5781 13.4901 68.5955 13.5324 68.6266 13.5637C68.6577 13.595 68.6999 13.6127 68.7441 13.613H69.8441V18.687C69.8441 20.736 70.8641 21.776 72.8781 21.776C73.6249 21.7939 74.3628 21.6101 75.0141 21.244C75.0399 21.2299 75.0615 21.2091 75.0764 21.1837C75.0914 21.1584 75.0992 21.1294 75.0991 21.1V19.231C75.099 19.2027 75.0917 19.1749 75.0779 19.1502C75.064 19.1256 75.0442 19.1048 75.0201 19.09C74.996 19.0747 74.9684 19.066 74.94 19.0648C74.9116 19.0635 74.8833 19.0698 74.8581 19.083C74.4443 19.297 73.9849 19.4075 73.5191 19.405C72.7881 19.405 72.4601 19.072 72.4601 18.328V13.614H74.9711C74.9929 13.614 75.0146 13.6097 75.0348 13.6013C75.055 13.5929 75.0734 13.5805 75.0888 13.565C75.1042 13.5495 75.1164 13.5311 75.1247 13.5108C75.133 13.4906 75.1372 13.4689 75.1371 13.447V11.487C75.1377 11.4651 75.134 11.4434 75.126 11.423C75.118 11.4026 75.106 11.3841 75.0907 11.3685C75.0754 11.3529 75.0571 11.3405 75.0368 11.3322C75.0166 11.3239 74.9949 11.3197 74.9731 11.32L74.9691 11.318ZM83.7161 11.328V11.013C83.7161 10.086 84.0721 9.672 84.8681 9.672C85.3071 9.67719 85.742 9.75734 86.1541 9.909C86.1792 9.91746 86.2059 9.91979 86.2321 9.91579C86.2583 9.91179 86.2832 9.90158 86.3046 9.88602C86.326 9.87046 86.3434 9.84999 86.3553 9.82632C86.3673 9.80266 86.3733 9.77649 86.3731 9.75V7.823C86.3735 7.78713 86.3622 7.7521 86.3409 7.72323C86.3196 7.69436 86.2894 7.67322 86.2551 7.663C85.6395 7.47505 84.9986 7.3833 84.3551 7.391C82.2491 7.391 81.1341 8.578 81.1341 10.821V11.304H80.0341C79.9898 11.3043 79.9475 11.3219 79.9163 11.3532C79.885 11.3845 79.8673 11.4268 79.8671 11.471V13.442C79.8673 13.4862 79.885 13.5285 79.9163 13.5598C79.9475 13.5911 79.9898 13.6087 80.0341 13.609H81.1341V21.434C81.1341 21.4783 81.1516 21.5208 81.183 21.5521C81.2143 21.5834 81.2568 21.601 81.3011 21.601H83.5811C83.603 21.6011 83.6248 21.5969 83.6451 21.5886C83.6655 21.5802 83.6839 21.5679 83.6994 21.5524C83.715 21.5368 83.7273 21.5184 83.7356 21.4981C83.744 21.4777 83.7482 21.456 83.7481 21.434V13.614H85.8781L89.1411 21.438C88.7711 22.259 88.4061 22.423 87.9091 22.423C87.4662 22.412 87.0334 22.2888 86.6511 22.065C86.6101 22.0445 86.563 22.0403 86.5191 22.053C86.497 22.0602 86.4768 22.0719 86.4595 22.0874C86.4423 22.1029 86.4285 22.1218 86.4191 22.143L85.6451 23.843C85.6272 23.8815 85.6247 23.9254 85.6381 23.9658C85.6515 24.0061 85.6797 24.0398 85.7171 24.06C86.4589 24.4806 87.2994 24.696 88.1521 24.684C89.8371 24.684 90.7691 23.898 91.5881 21.784L95.5541 11.556C95.5639 11.5309 95.5675 11.5037 95.5646 11.4769C95.5617 11.4501 95.5523 11.4243 95.5373 11.4019C95.5222 11.3795 95.502 11.3611 95.4783 11.3482C95.4545 11.3353 95.428 11.3284 95.4011 11.328H93.0251C92.9902 11.3277 92.9561 11.3384 92.9276 11.3585C92.8991 11.3786 92.8775 11.4071 92.8661 11.44L90.4331 18.389L87.7641 11.436C87.7521 11.4046 87.7309 11.3775 87.7032 11.3584C87.6755 11.3393 87.6427 11.329 87.6091 11.329H83.7091L83.7161 11.328ZM78.6451 11.318H76.3641C76.3198 11.3183 76.2775 11.3359 76.2463 11.3672C76.215 11.3985 76.1973 11.4408 76.1971 11.485V21.437C76.1971 21.4589 76.2014 21.4806 76.2098 21.5009C76.2182 21.5212 76.2305 21.5396 76.246 21.5551C76.2615 21.5706 76.2799 21.5829 76.3001 21.5913C76.3204 21.5997 76.3421 21.604 76.3641 21.604H78.6461C78.668 21.604 78.6897 21.5997 78.71 21.5913C78.7302 21.5829 78.7486 21.5706 78.7641 21.5551C78.7797 21.5396 78.792 21.5212 78.8003 21.5009C78.8087 21.4806 78.8131 21.4589 78.8131 21.437V11.486C78.8131 11.4417 78.7955 11.3992 78.7641 11.3679C78.7328 11.3366 78.6903 11.319 78.6461 11.319L78.6451 11.318ZM77.5171 6.786C77.1935 6.7858 76.8771 6.88156 76.608 7.06116C76.3388 7.24076 76.129 7.49614 76.005 7.79501C75.881 8.09387 75.8484 8.4228 75.9113 8.74019C75.9742 9.05758 76.1299 9.34918 76.3585 9.57812C76.5872 9.80706 76.8786 9.96305 77.1959 10.0264C77.5132 10.0897 77.8422 10.0575 78.1412 9.93385C78.4402 9.81021 78.6959 9.60067 78.8758 9.33174C79.0557 9.06281 79.1519 8.74657 79.1521 8.423C79.1522 8.20816 79.11 7.99539 79.0279 7.79685C78.9458 7.59831 78.8254 7.41789 78.6736 7.26588C78.5218 7.11387 78.3415 6.99325 78.1431 6.91092C77.9446 6.82858 77.7319 6.78613 77.5171 6.786ZM97.5031 14.523C97.185 14.5222 96.8743 14.4272 96.6102 14.2501C96.3461 14.0729 96.1403 13.8215 96.019 13.5275C95.8976 13.2335 95.866 12.9102 95.9281 12.5983C95.9903 12.2864 96.1434 11.9999 96.3683 11.7749C96.5931 11.55 96.8795 11.3966 97.1914 11.3343C97.5032 11.2719 97.8266 11.3033 98.1206 11.4245C98.4147 11.5457 98.6662 11.7513 98.8436 12.0153C99.0209 12.2793 99.1161 12.59 99.1171 12.908C99.1191 13.1206 99.0787 13.3314 98.9983 13.5282C98.9179 13.7249 98.7991 13.9037 98.6488 14.0541C98.4986 14.2044 98.3199 14.3233 98.1231 14.4039C97.9264 14.4844 97.7156 14.5249 97.5031 14.523ZM97.5121 11.463C97.2245 11.4602 96.9426 11.543 96.7022 11.7009C96.4618 11.8587 96.2738 12.0845 96.162 12.3495C96.0503 12.6145 96.0198 12.9067 96.0746 13.189C96.1294 13.4714 96.2668 13.731 96.4696 13.935C96.6723 14.139 96.9311 14.2781 97.2131 14.3346C97.495 14.3912 97.7875 14.3626 98.0531 14.2525C98.3188 14.1424 98.5458 13.9558 98.7051 13.7164C98.8645 13.477 98.949 13.1956 98.9481 12.908C98.9492 12.7187 98.913 12.531 98.8413 12.3557C98.7697 12.1804 98.6641 12.0211 98.5307 11.8868C98.3972 11.7525 98.2385 11.6459 98.0637 11.5732C97.8889 11.5004 97.7014 11.463 97.5121 11.463ZM97.8681 13.073L98.3231 13.709H97.9391L97.5301 13.126H97.1791V13.709H96.8581V12.023H97.6091C98.0021 12.023 98.2591 12.223 98.2591 12.561C98.2648 12.6785 98.2289 12.7942 98.1578 12.8878C98.0866 12.9815 97.9848 13.047 97.8701 13.073H97.8681ZM97.5971 12.313H97.1791V12.846H97.5971C97.8051 12.846 97.9301 12.746 97.9301 12.579C97.9301 12.412 97.8041 12.308 97.5961 12.308L97.5971 12.313Z" fill="#172327" fill-opacity="0.2"/>
</g>
<defs>
<clipPath id="clip0_360_21665">
<rect width="98.4" height="29.512" fill="white" transform="translate(0.717041)"/>
</clipPath>
</defs>
</svg>
